<svg height="45" viewBox="0 0 198 45" width="198" xmlns="http://www.w3.org/2000/svg"><g fill="none" fill-rule="evenodd"><path d="m135.63741 12.589617c1.948358 0 3.708165.376901 5.216571 1.7588712.377101.376901.691353.753802 1.131304 1.2563366v-2.4498563h4.65092v22.8025088l-4.77662 5.4022473v-10.0506926c-.125701.1256337-.251401.1884505-.314251.2512673-1.131305 1.5076039-2.765412 2.198589-4.525219 2.3870395-4.022416.376901-7.667731-1.5076039-9.553239-5.0253463-1.194155-2.2614058-1.634107-4.774079-1.257005-7.3495689.251401-2.0101386.879904-3.8318266 2.136909-5.4650642 1.885507-2.3242226 4.336667-3.4549255 7.29063-3.5177424zm32.305032.5025347c.1257 6.7842175-.125701 13.568435.18855 20.3526525h-4.525218c-.377102-.6281683-.188551-1.3191534-.314251-2.0729554-.188551.2512674-.314252.5025347-.502802.6281683-.817054 1.0050693-1.885508 1.5076039-3.079663 1.7588712-1.068454.3140842-2.074059.3140842-3.142513.2512673-2.45116-.2512673-4.399518-1.444787-5.593673-3.643376-.754203-1.3819703-1.131304-2.7639405-1.131304-4.3343612v-12.8774499h4.90232v11.9351975c0 1.0050692.1257 1.9473217.691352 2.8895741.879904 1.444787 2.199759 1.821688 3.833866 1.7588712 2.51401-.1256337 3.833866-1.9473217 3.833866-4.5228117.06285-3.8946434 0-7.7264699 0-11.6211133v-.5025346zm12.695752-.4397178c2.074058.5025346 3.833865 1.5076039 4.96517 3.3921087.1257.6909851.314251 1.3819703.628502 2.0729554-1.445555.4397178-2.765411.8166187-4.148117 1.1935197-.1257-.3140841-.18855-.6909851-.377101-1.0050692-.691353-1.5076039-2.011208-2.1357722-3.833866-2.0729554-.942754.0628168-1.696957.4397178-2.199759 1.2563366-.754203 1.0678861-.314251 2.5126731.942754 2.9523909.879904.3140842 1.759807.5025347 2.639711.6281683 1.696957.3140842 3.331064.6909851 4.776619 1.6960544 1.948358 1.5076039 2.891112 3.9574602 2.136909 6.2816829-.565652 1.9473217-1.822657 3.3292919-3.708165 4.2087275-1.508406.6909851-3.016812.8166188-4.650919.7538019-1.696957-.0628168-3.142513-.5025346-4.525219-1.444787-1.382705-.8794356-2.325459-2.0729554-2.828261-3.6433761-.06285-.2512673-.125701-.5025346-.188551-.6909851v-.376901c1.382706-.3769009 2.702561-.7538019 4.148117-1.1307029.06285.1256337.125701.2512673.188551.4397178.439952 1.821688 1.696957 2.8267573 3.456764 3.0152078 1.005604.1256336 1.948358 0 2.828262-.6281683.754203-.5653515.942753-1.3191534.817053-2.1357722-.125701-.7538019-.691353-1.2563365-1.382706-1.5076039-.879903-.3140841-1.759807-.5025346-2.702561-.6909851-1.634106-.376901-3.205363-.6909851-4.588069-1.6960544-1.759807-1.5076038-2.51401-3.3292919-2.011208-5.5906977.565653-2.3870395 2.074059-3.9574602 4.336668-4.8997127 1.696957-.7538019 3.519614-.8166187 5.279422-.3769009zm-85.0992484-.1256337c2.5140103.0628168 4.5880684 1.1307029 5.7822234 3.5177424.251401-.376901.502802-.6281683.691353-.9422524.942754-1.1935198 2.074059-1.8845049 3.582465-2.2614058 1.257005-.3140842 2.45116-.376901 3.708165-.1884505 2.262609.3769009 4.085267 1.6332375 5.090871 3.7690097.628502 1.3191534.817053 2.57549.817053 4.020277v12.5633658c.125701.1256336.06285.3140841.06285.5025346h-4.650919l-.06285-.5653514v-11.8095638c0-.9422525-.125701-1.6960544-.628503-2.5126732-.691352-1.2563366-1.822657-1.6332375-3.142512-1.6332375-2.639711-.1256337-4.399518 1.8845048-4.399518 4.2715443v11.746747c0 .1884505 0 .376901-.062851.5653514h-4.7137689l-.0628503-.5653514v-11.9351975c0-1.3819702-.3771015-2.5126731-1.5084062-3.4549256-.8799036-.6909851-1.8226574-.6909851-2.8282615-.6909851-2.45116.1256337-3.8338657 2.1357722-3.8338657 4.397178v12.1864648h-4.7766195v-20.3526525h4.650919v2.2614058c1.6969569-2.0101385 3.7710154-2.9523909 6.2850257-2.8895741zm27.9055144.6281683v20.3526525h-4.77662v-20.3526525zm-2.38831-10.36477675c1.759807 0 3.205363 1.57042072 3.142513 3.20365827 0 1.7588712-1.445556 3.14084144-3.205363 3.14084144-1.571257-.06281683-3.142513-1.44478707-3.079663-3.20365827-.06285-1.69605438 1.445556-3.20365827 3.142513-3.14084144zm-50.7830077 9.73660845c1.9483579 0 3.7081651.376901 5.2165713 1.7588712.3771016.376901.6913528.753802 1.1313046 1.2563366v-2.4498563h4.6509191v20.4154693l-4.7766196-.0628168v-2.198589c-.1257005.1256336-1.6969569 2.3242226-4.8394698 2.6383068-4.0224164.376901-7.6677313-1.5076039-9.553239-5.0253463-1.1941549-2.2614058-1.6341067-4.774079-1.2570052-7.349569.2514011-2.0101385.8799036-3.8318265 2.1369088-5.4650641 1.8855077-2.3242226 4.3366677-3.4549256 7.2906298-3.5177424zm66.4327217 4.397178c2.325459.0628169 4.148117 1.4447871 4.90232 3.5177424.502802 1.9473217.502802 3.8318266-.251401 5.7163315-.502802 1.2563365-1.194155 2.198589-2.32546 2.8895741-2.388309 1.3191534-5.530822.6909851-7.039228-1.8845049-.817054-1.3191534-1.005604-2.7011236-.942754-4.397178 0-1.1935197.314251-2.4498563 1.068454-3.6433761 1.068455-1.6332375 2.639711-2.2614058 4.588069-2.198589zm-62.9759576 12.123648c-2.3883098 1.3191534-5.5308226.6909851-7.0392288-1.8845049-.8170533-1.3191534-1.0056041-2.7011236-.9427538-4.397178 0-1.1935197.3142513-2.4498563 1.0684543-3.6433761 1.0684544-1.6332375 2.6397108-2.2614058 4.5880688-2.198589 2.3254595.0628169 4.148117 1.4447871 4.90232 3.5177424.5028021 1.9473217.4399518 3.8318266-.251401 5.7163315-.502802 1.2563365-1.1941549 2.198589-2.3254595 2.8895741z" fill="#ffffff"/><g transform="translate(0 .645)"><path d="m44.394 34.215h11.806l-5.722 9.643z" fill="#006800"/><path d="m32.9173071 24.8707175c-1.3182902 4.7202797-5.7125909 8.1712405-10.825959 8.1712405-6.1919692 0-11.2254409-4.9979432-11.2254409-11.1462067s5.0334717-11.1462067 11.2254409-11.1462067c5.1533163 0 9.6275134 3.5699594 10.8659072 8.5282364l1.0386529 3.8079568 3.7950779 14.3591702v.1586649l1.5579793 6.1085973h11.2653891l-7.0708293-27.0920256c-2.5167359-9.71822299-11.3053373-16.6201446-21.4122289-16.6201446-12.18419743 0-22.1312963 9.75788917-22.1312963 21.8957513 0 12.1378621 9.90715068 21.9354175 22.1312963 21.9354175 5.3530572 0 10.3865289-1.9039783 14.4212959-5.3152729z" fill="#00ad09"/></g></g></svg>
